<svg width="21" height="21" viewBox="0 0 21 21" fill="none" xmlns="http://www.w3.org/2000/svg">
<path fill-rule="evenodd" clip-rule="evenodd" d="M12.7754 3.70295C12.7026 3.50551 12.6062 3.32269 12.4904 3.15674C12.5514 3.17201 12.6123 3.18779 12.6732 3.2041C13.6506 3.46601 14.5696 3.8534 15.457 4.22749C15.5775 4.27833 15.698 4.32912 15.8176 4.37912C16.2889 4.57635 16.5661 5.07468 16.4795 5.57826C16.449 5.75621 16.4187 5.93538 16.3881 6.11558C16.1942 7.26035 15.9932 8.44717 15.6754 9.63344C15.6335 9.78976 15.5898 9.94507 15.5447 10.0994C15.2552 10.0777 14.9574 10.0626 14.654 10.0595C14.5151 9.3017 14.3534 8.5166 14.1433 7.73252C13.8079 6.48101 13.3646 5.28882 12.9612 4.20385C12.8981 4.03429 12.8359 3.86709 12.7754 3.70295ZM5.37765 14.352C5.55446 14.8314 6.04373 15.1243 6.55056 15.0594C6.67912 15.043 6.80843 15.0268 6.93836 15.0104C7.89392 14.8908 8.88372 14.7667 9.86115 14.5049C9.93129 14.486 10.0011 14.4666 10.0707 14.4466C10.075 13.8107 10.1303 13.1981 10.1908 12.6318C10.328 11.3495 11.3514 10.3285 12.6284 10.1862C12.8509 10.1614 13.0809 10.1373 13.3171 10.1168C13.1906 9.44161 13.0463 8.75848 12.8633 8.0755C12.5455 6.88921 12.1262 5.761 11.7217 4.67265C11.658 4.5013 11.5947 4.33094 11.5322 4.1615C11.3554 3.6821 10.8661 3.38915 10.3593 3.45403C10.2306 3.4705 10.1013 3.48671 9.97124 3.503C9.01567 3.62273 8.02613 3.74671 7.0487 4.00861C6.07126 4.27052 5.15231 4.65791 4.26491 5.03201C4.14416 5.08292 4.024 5.13357 3.90435 5.18363C3.43298 5.38085 3.15574 5.87919 3.24231 6.38276C3.27291 6.56075 3.30326 6.73993 3.33378 6.92016C3.52766 8.06495 3.72865 9.25167 4.04651 10.438C4.36437 11.6242 4.78369 12.7525 5.18817 13.8408C5.25179 14.012 5.31521 14.1827 5.37765 14.352ZM8.06131 6.9392C7.99664 6.89231 7.91428 6.87707 7.83713 6.89775C7.75997 6.91843 7.69626 6.9728 7.6637 7.04573L6.53016 9.58537C6.47944 9.69898 6.51459 9.83257 6.61465 9.90653L8.87668 11.5785C8.9416 11.6265 9.02484 11.6423 9.10282 11.6214C9.18079 11.6005 9.24499 11.5452 9.27722 11.4712L10.4002 8.89219C10.4499 8.77812 10.4135 8.64485 10.3128 8.57181L8.06131 6.9392ZM12.7459 17.8136C11.9608 17.726 11.329 17.0943 11.245 16.3088C11.1829 15.7289 11.1305 15.1336 11.1305 14.5267C11.1305 13.9198 11.1829 13.3244 11.245 12.7446C11.329 11.9591 11.9608 11.3273 12.7459 11.2398C13.329 11.1748 13.9277 11.119 14.5383 11.119C15.1487 11.119 15.7475 11.1748 16.3306 11.2398C17.1157 11.3273 17.7474 11.9591 17.8315 12.7446C17.8935 13.3244 17.9459 13.9198 17.9459 14.5267C17.9459 15.1336 17.8935 15.7289 17.8315 16.3088C17.7474 17.0943 17.1157 17.726 16.3306 17.8136C15.7475 17.8786 15.1487 17.9343 14.5383 17.9343C13.9277 17.9343 13.329 17.8786 12.7459 17.8136ZM13.842 15.2338C13.842 14.941 13.6047 14.7037 13.3119 14.7037C13.0192 14.7037 12.7819 14.941 12.7819 15.2338V15.7639C12.7819 16.0566 13.0192 16.294 13.3119 16.294C13.6047 16.294 13.842 16.0566 13.842 15.7639V15.2338ZM15.7128 12.5192C16.0055 12.5192 16.2429 12.7566 16.2429 13.0493V13.5794C16.2429 13.8722 16.0055 14.1094 15.7128 14.1094C15.42 14.1094 15.1827 13.8722 15.1827 13.5794V13.0493C15.1827 12.7566 15.42 12.5192 15.7128 12.5192Z" fill="white"/>
</svg>
